<svg id="Layer_1" xmlns="http://www.w3.org/2000/svg" xmlns:xlink="http://www.w3.org/1999/xlink" viewBox="0 0 383 80"><style>.st0{fill:#fff}</style><image width="37" height="42" xlink:href="7F7CB2A248BE24F3.png" transform="translate(87 19)" overflow="visible" opacity=".45"/><path class="st0" d="M106.7 24.7c4.1 0 7.1 1.3 9.9 3.8.4.3.4.8 0 1.1l-3.2 3.3c-.3.3-.7.3-1 0-1.5-1.3-3.5-2.1-5.5-2.1-4.6 0-8 3.8-8 8.4 0 4.5 3.4 8.3 8.1 8.3 1.9 0 4-.7 5.5-2 .3-.2.8-.2 1.1 0l3.2 3.4c.3.3.2.8 0 1.1-2.8 2.7-6.3 4-9.9 4-8.2 0-14.8-6.5-14.8-14.7-.1-8.1 6.5-14.6 14.6-14.6z"/><image width="42" height="43" xlink:href="7F7CB2A248BE24F1.png" transform="translate(118 19)" overflow="visible" opacity=".45"/><path class="st0" d="M138 24.7c8.2 0 14.7 6.6 14.7 14.8s-6.5 14.7-14.7 14.7-14.7-6.5-14.7-14.7c.1-8.3 6.6-14.8 14.7-14.8zm0 22.8c4.5 0 8.2-3.7 8.2-8.1 0-4.5-3.7-8.2-8.2-8.2s-8.1 3.7-8.1 8.2 3.7 8.1 8.1 8.1z"/><image width="41" height="41" xlink:href="7F7CB2A248BE24F7.png" transform="translate(150 20)" overflow="visible" opacity=".45"/><path class="st0" d="M155.9 26.1c-.2-.5.1-1.1.7-1.1h5.4c.3 0 .6.2.7.4l6.7 14.9h.2l6.7-14.9c.1-.2.4-.4.7-.4h5.4c.6 0 .9.5.7 1.1l-12.8 27.5c-.1.2-.4.4-.7.4h-.4c-.3 0-.6-.2-.7-.4l-12.6-27.5z"/><image width="40" height="42" xlink:href="7F7CB2A248BE24F0.png" transform="translate(177 20)" overflow="visible" opacity=".45"/><path class="st0" d="M195.1 25.5c.1-.2.4-.4.7-.4h.4c.3 0 .6.2.7.4L209.7 53c.2.5-.1 1.1-.7 1.1h-5.4c-.3 0-.6-.2-.7-.4l-6.7-14.9h-.2l-6.7 14.9c-.1.2-.4.4-.7.4H183c-.6 0-.9-.5-.7-1.1l12.8-27.5z"/><image width="30" height="41" xlink:href="7F7CB2A248BE24FE.png" transform="translate(213 20)" overflow="visible" opacity=".45"/><path class="st0" d="M218.2 25.8c0-.4.3-.8.8-.8h4.9c.4 0 .8.4.8.8v21.8h9.7c.4 0 .8.4.8.8v4.5c0 .4-.3.8-.8.8H219c-.4 0-.8-.4-.8-.8V25.8z"/><image width="32" height="41" xlink:href="7F7CB2A248BE24FF.png" transform="translate(239 20)" overflow="visible" opacity=".45"/><path class="st0" d="M244.7 25.8c0-.4.3-.8.8-.8h16.9c.4 0 .8.4.8.8v4.5c0 .4-.3.8-.8.8H251v6.8h9.3c.4 0 .8.4.8.8v4.5c0 .4-.4.8-.8.8H251v3.8h11.3c.4 0 .8.4.8.8v4.5c0 .4-.3.8-.8.8h-16.9c-.4 0-.8-.4-.8-.8V25.8h.1z"/><image width="31" height="41" xlink:href="7F7CB2A248BE24F2.png" transform="translate(333 20)" overflow="visible" opacity=".45"/><path class="st0" d="M338.2 25.8c0-.4.3-.8.8-.8h16.9c.4 0 .8.4.8.8v4.5c0 .4-.3.8-.8.8h-11.3v6.8h9.3c.4 0 .8.4.8.8v4.5c0 .4-.4.8-.8.8h-9.3v3.8h11.3c.4 0 .8.4.8.8v4.5c0 .4-.3.8-.8.8H339c-.4 0-.8-.4-.8-.8V25.8z"/><image width="38" height="42" xlink:href="7F7CB2A248BE24F5.png" transform="translate(267 19)" overflow="visible" opacity=".45"/><path class="st0" d="M272.7 25.4c0-.4.4-.7.8-.7h1l16.3 15.7V25.8c0-.4.3-.8.8-.8h4.9c.4 0 .8.4.8.8v27.5c0 .4-.4.7-.8.7h-.7c-.1 0-.4-.1-.5-.2l-16.1-16.2v15.2c0 .4-.3.8-.8.8h-4.9c-.4 0-.8-.4-.8-.8V25.4z"/><image width="38" height="42" xlink:href="7F7CB2A248BE24F6.png" transform="translate(300 19)" overflow="visible" opacity=".45"/><path class="st0" d="M320.1 24.7c4.1 0 7.1 1.3 9.9 3.8.4.3.4.8 0 1.1l-3.2 3.3c-.3.3-.7.3-1 0-1.5-1.3-3.5-2.1-5.5-2.1-4.6 0-8 3.8-8 8.4 0 4.5 3.4 8.3 8.1 8.3 1.9 0 4-.7 5.5-2 .3-.2.8-.2 1.1 0l3.2 3.4c.3.3.2.8 0 1.1-2.8 2.7-6.3 4-9.9 4-8.2 0-14.8-6.5-14.8-14.7-.1-8.1 6.5-14.6 14.6-14.6z"/><image width="39" height="56" xlink:href="6D05D174837B5720.png" transform="translate(50 5)" overflow="visible" opacity=".45"/><path class="st0" d="M76.2 15.6c1 1 .9 4.7-1.9 10.4-2.6 5.3-6.7 11.2-11.7 16.5-1.9-.6-4-.1-5.5 1.4-2.2 2.2-2.2 5.7 0 7.9s5.7 2.2 7.9 0c1.5-1.5 2-3.7 1.4-5.6.7-.8 1.4-1.5 2.1-2.3 0 .1 0 0 0 0 .5-.6 1-1.1 1.4-1.7 0 0 .1.1 0 0 3.8-4.6 7-9.5 9.1-13.9 3.6-7.6 3.9-13.3.8-16.4-4.5-4.5-13 .5-23.7 9.1l1.4 1.4c9.9-7.5 16.9-8.6 18.7-6.8z"/><image width="56" height="40" xlink:href="6D05D174837B5727.png" transform="translate(34 37)" overflow="visible" opacity=".45"/><path class="st0" d="M71.2 43.5c-.5.5-1 1.1-1.5 1.8 5.4 6.6 7.9 12.5 7.9 16 0 1.1-.2 1.8-.7 2.3-2.3 2.3-12.1-1-22.3-11.2l-3.7-3.7c.2-1.7-.3-3.4-1.6-4.7-2.2-2.2-5.7-2.2-7.9 0s-2.2 5.7 0 7.9c1.7 1.7 4.3 2.1 6.4 1.1l2.5 2.4c-.1 0 0 0 0 0 .4.4 1 1 1.7 1.6 0 0-.1 0 0 0 7.2 7 16.3 12.5 22.9 12.5 2.3 0 4.3-.7 5.8-2.2 1.5-1.4 2.3-3.5 2.3-6-.1-5.5-5.3-11.2-11.8-17.8z"/><image width="39" height="56" xlink:href="6D05D174837B5721.png" transform="translate(19 20)" overflow="visible" opacity=".45"/><path class="st0" d="M30.9 62.5c-1.4-1.3-1-4.9.9-9.2C34.1 48 38.4 42 43.9 36.5l.1-.1c1.8.5 3.9 0 5.3-1.5 2.2-2.2 2.2-5.7 0-7.9s-5.7-2.2-7.9 0c-1.6 1.6-2 3.9-1.3 5.8-.8.8-1.5 1.5-2.2 2.3-.4.5-.9 1-1.4 1.6-4.2 4.8-7.4 9.8-9.5 14.4-2.9 6.7-2.8 12 .2 15.1 1.5 1.5 3.7 2.3 6.3 2.3 4.6 0 10.5-5.1 17-10.4-.7-.7-1.3-1.2-1.7-1.7-8.8 6.4-15.8 8.1-17.9 6.1z"/><image width="56" height="40" xlink:href="6D05D174837B5723.png" transform="translate(18 4)" overflow="visible" opacity=".45"/><path class="st0" d="M36.7 33.7C31.1 27 28.6 21 28.6 17.5c0-1.1.2-1.8.7-2.3 2.3-2.3 12.1 1 22.2 11.2l4 4.1c-.1 1.5.5 3.1 1.6 4.2 2.2 2.2 5.7 2.2 7.9 0s2.2-5.7 0-7.9c-1.8-1.8-4.5-2.1-6.6-.9L56 23.6l-.7-.7-.7-.7c-9.8-9.6-23-16.5-29-10.6-1.5 1.4-2.3 3.5-2.3 6 0 5.3 5.4 11.4 11.8 17.9.6-.7 1.1-1.3 1.6-1.8z"/></svg>